<svg width="26" height="26" viewBox="0 0 26 26" fill="none" xmlns="http://www.w3.org/2000/svg">
<path d="M19.1084 0.860442C15.0744 0.0465191 10.9259 0.0465194 6.89191 0.860442C4.36533 1.37022 2.33203 3.30484 1.63449 5.86272L1.57512 6.08041C0.752955 9.09528 0.752955 12.2859 1.57512 15.3008L1.63449 15.5184C2.33203 18.0763 4.36533 20.0109 6.89192 20.5207C8.58919 20.8632 10.3067 21.0615 12.0275 21.1158V23.7421H9.75799C9.22081 23.7421 8.78534 24.1916 8.78534 24.746C8.78534 25.3005 9.22081 25.75 9.75799 25.75H16.2423C16.7795 25.75 17.215 25.3005 17.215 24.746C17.215 24.1916 16.7795 23.7421 16.2423 23.7421H13.9728V21.1158C15.6936 21.0615 17.4111 20.8632 19.1084 20.5207C21.635 20.0109 23.6683 18.0763 24.3658 15.5184L24.4252 15.3007C25.2474 12.2859 25.2474 9.09528 24.4252 6.08042L24.3658 5.86272C23.6683 3.30484 21.635 1.37022 19.1084 0.860442Z" fill="white"/>
</svg>
